<svg width="862" height="339" viewBox="0 0 862 339" fill="none" xmlns="http://www.w3.org/2000/svg">
<path d="M40 32C40 27.0294 44.0294 23 49 23H262C266.971 23 271 27.0294 271 32V330C271 334.971 266.971 339 262 339H49C44.0294 339 40 334.971 40 330V32Z" fill="white"/>
<path fill-rule="evenodd" clip-rule="evenodd" d="M262 28H49C46.7909 28 45 29.7909 45 32V330C45 332.209 46.7909 334 49 334H262C264.209 334 266 332.209 266 330V32C266 29.7909 264.209 28 262 28ZM49 23C44.0294 23 40 27.0294 40 32V330C40 334.971 44.0294 339 49 339H262C266.971 339 271 334.971 271 330V32C271 27.0294 266.971 23 262 23H49Z" fill="black"/>
<path d="M28 52C28 47.0294 32.0294 43 37 43H853C857.971 43 862 47.0294 862 52V283C862 287.971 857.971 292 853 292H37C32.0294 292 28 287.971 28 283V52Z" fill="white"/>
<path fill-rule="evenodd" clip-rule="evenodd" d="M853 48H37C34.7909 48 33 49.7909 33 52V283C33 285.209 34.7909 287 37 287H853C855.209 287 857 285.209 857 283V52C857 49.7909 855.209 48 853 48ZM37 43C32.0294 43 28 47.0294 28 52V283C28 287.971 32.0294 292 37 292H853C857.971 292 862 287.971 862 283V52C862 47.0294 857.971 43 853 43H37Z" fill="black"/>
<path d="M275.091 114.909H299.364L325 177.454H326.091L351.727 114.909H376V208H356.909V147.409H356.136L332.045 207.545H319.045L294.954 147.182H294.182V208H275.091V114.909Z" fill="black"/>
<path d="M403.807 234.182C401.352 234.182 399.049 233.985 396.898 233.591C394.776 233.227 393.019 232.757 391.625 232.182L395.989 217.727C398.261 218.424 400.307 218.803 402.125 218.864C403.973 218.924 405.564 218.5 406.898 217.591C408.261 216.682 409.367 215.136 410.216 212.954L411.352 210L386.307 138.182H406.67L421.125 189.454H421.852L436.443 138.182H456.943L429.807 215.545C428.504 219.303 426.731 222.576 424.489 225.364C422.276 228.182 419.473 230.348 416.079 231.864C412.686 233.409 408.595 234.182 403.807 234.182Z" fill="black"/>
<path d="M529.841 208H496.841V114.909H530.114C539.477 114.909 547.538 116.773 554.295 120.5C561.053 124.197 566.25 129.515 569.886 136.454C573.553 143.394 575.386 151.697 575.386 161.364C575.386 171.061 573.553 179.394 569.886 186.364C566.25 193.333 561.023 198.682 554.204 202.409C547.417 206.136 539.295 208 529.841 208ZM516.523 191.136H529.023C534.841 191.136 539.735 190.106 543.704 188.045C547.704 185.954 550.704 182.727 552.704 178.364C554.735 173.97 555.75 168.303 555.75 161.364C555.75 154.485 554.735 148.864 552.704 144.5C550.704 140.136 547.72 136.924 543.75 134.864C539.78 132.803 534.886 131.773 529.068 131.773H516.523V191.136Z" fill="black"/>
<path d="M589.602 208V138.182H608.966V208H589.602ZM599.329 129.182C596.451 129.182 593.981 128.227 591.92 126.318C589.89 124.379 588.875 122.061 588.875 119.364C588.875 116.697 589.89 114.409 591.92 112.5C593.981 110.561 596.451 109.591 599.329 109.591C602.208 109.591 604.663 110.561 606.693 112.5C608.754 114.409 609.784 116.697 609.784 119.364C609.784 122.061 608.754 124.379 606.693 126.318C604.663 128.227 602.208 129.182 599.329 129.182Z" fill="black"/>
<path d="M644.386 209.318C639.932 209.318 635.962 208.545 632.477 207C628.992 205.424 626.235 203.106 624.204 200.045C622.204 196.954 621.204 193.106 621.204 188.5C621.204 184.621 621.917 181.364 623.341 178.727C624.765 176.091 626.704 173.97 629.159 172.364C631.614 170.757 634.401 169.545 637.523 168.727C640.674 167.909 643.977 167.333 647.432 167C651.492 166.576 654.765 166.182 657.25 165.818C659.735 165.424 661.538 164.848 662.659 164.091C663.78 163.333 664.341 162.212 664.341 160.727V160.454C664.341 157.576 663.432 155.348 661.614 153.773C659.826 152.197 657.28 151.409 653.977 151.409C650.492 151.409 647.72 152.182 645.659 153.727C643.598 155.242 642.235 157.151 641.568 159.454L623.659 158C624.568 153.757 626.356 150.091 629.023 147C631.689 143.879 635.129 141.485 639.341 139.818C643.583 138.121 648.492 137.273 654.068 137.273C657.947 137.273 661.659 137.727 665.204 138.636C668.78 139.545 671.947 140.954 674.704 142.864C677.492 144.773 679.689 147.227 681.295 150.227C682.901 153.197 683.704 156.757 683.704 160.909V208H665.341V198.318H664.795C663.674 200.5 662.174 202.424 660.295 204.091C658.417 205.727 656.159 207.015 653.523 207.954C650.886 208.864 647.841 209.318 644.386 209.318ZM649.932 195.954C652.78 195.954 655.295 195.394 657.477 194.273C659.659 193.121 661.371 191.576 662.614 189.636C663.856 187.697 664.477 185.5 664.477 183.045V175.636C663.871 176.03 663.038 176.394 661.977 176.727C660.947 177.03 659.78 177.318 658.477 177.591C657.174 177.833 655.871 178.061 654.568 178.273C653.265 178.454 652.083 178.621 651.023 178.773C648.75 179.106 646.765 179.636 645.068 180.364C643.371 181.091 642.053 182.076 641.114 183.318C640.174 184.53 639.704 186.045 639.704 187.864C639.704 190.5 640.659 192.515 642.568 193.909C644.507 195.273 646.962 195.954 649.932 195.954Z" fill="black"/>
<path d="M698.727 208V138.182H717.5V150.364H718.227C719.5 146.03 721.636 142.757 724.636 140.545C727.636 138.303 731.091 137.182 735 137.182C735.97 137.182 737.015 137.242 738.136 137.364C739.257 137.485 740.242 137.651 741.091 137.864V155.045C740.182 154.773 738.924 154.53 737.318 154.318C735.712 154.106 734.242 154 732.909 154C730.061 154 727.515 154.621 725.273 155.864C723.061 157.076 721.303 158.773 720 160.954C718.727 163.136 718.091 165.651 718.091 168.5V208H698.727Z" fill="black"/>
<path d="M765.182 234.182C762.727 234.182 760.424 233.985 758.273 233.591C756.151 233.227 754.394 232.757 753 232.182L757.364 217.727C759.636 218.424 761.682 218.803 763.5 218.864C765.348 218.924 766.939 218.5 768.273 217.591C769.636 216.682 770.742 215.136 771.591 212.954L772.727 210L747.682 138.182H768.045L782.5 189.454H783.227L797.818 138.182H818.318L791.182 215.545C789.879 219.303 788.106 222.576 785.864 225.364C783.651 228.182 780.848 230.348 777.454 231.864C774.061 233.409 769.97 234.182 765.182 234.182Z" fill="black"/>
<path d="M12 9C12 4.02944 16.0294 0 21 0H234C238.971 0 243 4.02944 243 9V307C243 311.971 238.971 316 234 316H21C16.0294 316 12 311.971 12 307V9Z" fill="white"/>
<path fill-rule="evenodd" clip-rule="evenodd" d="M234 5H21C18.7909 5 17 6.79086 17 9V307C17 309.209 18.7909 311 21 311H234C236.209 311 238 309.209 238 307V9C238 6.79086 236.209 5 234 5ZM21 0C16.0294 0 12 4.02944 12 9V307C12 311.971 16.0294 316 21 316H234C238.971 316 243 311.971 243 307V9C243 4.02944 238.971 0 234 0H21Z" fill="black"/>
<path fill-rule="evenodd" clip-rule="evenodd" d="M0 43C0 41.3431 1.34315 40 3 40H28C29.6569 40 31 41.3431 31 43C31 44.6569 29.6569 46 28 46H3C1.34315 46 0 44.6569 0 43Z" fill="black"/>
<path fill-rule="evenodd" clip-rule="evenodd" d="M0 66C0 64.3431 1.34315 63 3 63H28C29.6569 63 31 64.3431 31 66C31 67.6569 29.6569 69 28 69H3C1.34315 69 0 67.6569 0 66Z" fill="black"/>
<path fill-rule="evenodd" clip-rule="evenodd" d="M0 89C0 87.3431 1.34315 86 3 86H28C29.6569 86 31 87.3431 31 89C31 90.6569 29.6569 92 28 92H3C1.34315 92 0 90.6569 0 89Z" fill="black"/>
<path fill-rule="evenodd" clip-rule="evenodd" d="M0 112C0 110.343 1.34315 109 3 109H28C29.6569 109 31 110.343 31 112C31 113.657 29.6569 115 28 115H3C1.34315 115 0 113.657 0 112Z" fill="black"/>
<path fill-rule="evenodd" clip-rule="evenodd" d="M0 135C0 133.343 1.34315 132 3 132H28C29.6569 132 31 133.343 31 135C31 136.657 29.6569 138 28 138H3C1.34315 138 0 136.657 0 135Z" fill="black"/>
<path fill-rule="evenodd" clip-rule="evenodd" d="M0 158C0 156.343 1.34315 155 3 155H28C29.6569 155 31 156.343 31 158C31 159.657 29.6569 161 28 161H3C1.34315 161 0 159.657 0 158Z" fill="black"/>
<path fill-rule="evenodd" clip-rule="evenodd" d="M0 181C0 179.343 1.34315 178 3 178H28C29.6569 178 31 179.343 31 181C31 182.657 29.6569 184 28 184H3C1.34315 184 0 182.657 0 181Z" fill="black"/>
<path fill-rule="evenodd" clip-rule="evenodd" d="M0 204C0 202.343 1.34315 201 3 201H28C29.6569 201 31 202.343 31 204C31 205.657 29.6569 207 28 207H3C1.34315 207 0 205.657 0 204Z" fill="black"/>
<path fill-rule="evenodd" clip-rule="evenodd" d="M0 227C0 225.343 1.34315 224 3 224H28C29.6569 224 31 225.343 31 227C31 228.657 29.6569 230 28 230H3C1.34315 230 0 228.657 0 227Z" fill="black"/>
<path fill-rule="evenodd" clip-rule="evenodd" d="M0 250C0 248.343 1.34315 247 3 247H28C29.6569 247 31 248.343 31 250C31 251.657 29.6569 253 28 253H3C1.34315 253 0 251.657 0 250Z" fill="black"/>
<path fill-rule="evenodd" clip-rule="evenodd" d="M0 273C0 271.343 1.34315 270 3 270H28C29.6569 270 31 271.343 31 273C31 274.657 29.6569 276 28 276H3C1.34315 276 0 274.657 0 273Z" fill="black"/>
<path fill-rule="evenodd" clip-rule="evenodd" d="M55.5 44C55.5 42.6193 56.6193 41.5 58 41.5H208C209.381 41.5 210.5 42.6193 210.5 44C210.5 45.3807 209.381 46.5 208 46.5H58C56.6193 46.5 55.5 45.3807 55.5 44Z" fill="black"/>
<path fill-rule="evenodd" clip-rule="evenodd" d="M55.5 76C55.5 74.6193 56.6193 73.5 58 73.5H208C209.381 73.5 210.5 74.6193 210.5 76C210.5 77.3807 209.381 78.5 208 78.5H58C56.6193 78.5 55.5 77.3807 55.5 76Z" fill="black"/>
<path fill-rule="evenodd" clip-rule="evenodd" d="M55.5 107C55.5 105.619 56.6193 104.5 58 104.5H208C209.381 104.5 210.5 105.619 210.5 107C210.5 108.381 209.381 109.5 208 109.5H58C56.6193 109.5 55.5 108.381 55.5 107Z" fill="black"/>
<path fill-rule="evenodd" clip-rule="evenodd" d="M55.5 139C55.5 137.619 56.6193 136.5 58 136.5H208C209.381 136.5 210.5 137.619 210.5 139C210.5 140.381 209.381 141.5 208 141.5H58C56.6193 141.5 55.5 140.381 55.5 139Z" fill="black"/>
<path fill-rule="evenodd" clip-rule="evenodd" d="M55.5 169C55.5 167.619 56.6193 166.5 58 166.5H133C134.381 166.5 135.5 167.619 135.5 169C135.5 170.381 134.381 171.5 133 171.5H58C56.6193 171.5 55.5 170.381 55.5 169Z" fill="black"/>
<path fill-rule="evenodd" clip-rule="evenodd" d="M103.5 285C103.5 283.619 104.619 282.5 106 282.5H208C209.381 282.5 210.5 283.619 210.5 285C210.5 286.381 209.381 287.5 208 287.5H106C104.619 287.5 103.5 286.381 103.5 285Z" fill="black"/>
</svg>
