<svg width="258" height="320" viewBox="0 0 258 320" fill="none" xmlns="http://www.w3.org/2000/svg">
<path d="M16 26C16 13.8497 25.8497 4 38 4H236C248.15 4 258 13.8497 258 26V298C258 310.15 248.15 320 236 320H38C25.8497 320 16 310.15 16 298V26Z" fill="black"/>
<path d="M13 22C13 9.84974 22.8497 0 35 0H233C245.15 0 255 9.84974 255 22V294C255 306.15 245.15 316 233 316H35C22.8497 316 13 306.15 13 294V22Z" fill="white"/>
<path fill-rule="evenodd" clip-rule="evenodd" d="M233 5H35C25.6112 5 18 12.6112 18 22V294C18 303.389 25.6112 311 35 311H233C242.389 311 250 303.389 250 294V22C250 12.6112 242.389 5 233 5ZM35 0C22.8497 0 13 9.84974 13 22V294C13 306.15 22.8497 316 35 316H233C245.15 316 255 306.15 255 294V22C255 9.84974 245.15 0 233 0H35Z" fill="black"/>
<path fill-rule="evenodd" clip-rule="evenodd" d="M0 43C0 40.7909 1.79086 39 4 39H29C31.2091 39 33 40.7909 33 43C33 45.2091 31.2091 47 29 47H4C1.79086 47 0 45.2091 0 43Z" fill="black"/>
<path fill-rule="evenodd" clip-rule="evenodd" d="M0 66C0 63.7909 1.79086 62 4 62H29C31.2091 62 33 63.7909 33 66C33 68.2091 31.2091 70 29 70H4C1.79086 70 0 68.2091 0 66Z" fill="black"/>
<path fill-rule="evenodd" clip-rule="evenodd" d="M0 89C0 86.7909 1.79086 85 4 85H29C31.2091 85 33 86.7909 33 89C33 91.2091 31.2091 93 29 93H4C1.79086 93 0 91.2091 0 89Z" fill="black"/>
<path fill-rule="evenodd" clip-rule="evenodd" d="M0 112C0 109.791 1.79086 108 4 108H29C31.2091 108 33 109.791 33 112C33 114.209 31.2091 116 29 116H4C1.79086 116 0 114.209 0 112Z" fill="black"/>
<path fill-rule="evenodd" clip-rule="evenodd" d="M0 135C0 132.791 1.79086 131 4 131H29C31.2091 131 33 132.791 33 135C33 137.209 31.2091 139 29 139H4C1.79086 139 0 137.209 0 135Z" fill="black"/>
<path fill-rule="evenodd" clip-rule="evenodd" d="M0 158C0 155.791 1.79086 154 4 154H29C31.2091 154 33 155.791 33 158C33 160.209 31.2091 162 29 162H4C1.79086 162 0 160.209 0 158Z" fill="black"/>
<path fill-rule="evenodd" clip-rule="evenodd" d="M0 181C0 178.791 1.79086 177 4 177H29C31.2091 177 33 178.791 33 181C33 183.209 31.2091 185 29 185H4C1.79086 185 0 183.209 0 181Z" fill="black"/>
<path fill-rule="evenodd" clip-rule="evenodd" d="M0 204C0 201.791 1.79086 200 4 200H29C31.2091 200 33 201.791 33 204C33 206.209 31.2091 208 29 208H4C1.79086 208 0 206.209 0 204Z" fill="black"/>
<path fill-rule="evenodd" clip-rule="evenodd" d="M0 227C0 224.791 1.79086 223 4 223H29C31.2091 223 33 224.791 33 227C33 229.209 31.2091 231 29 231H4C1.79086 231 0 229.209 0 227Z" fill="black"/>
<path fill-rule="evenodd" clip-rule="evenodd" d="M0 250C0 247.791 1.79086 246 4 246H29C31.2091 246 33 247.791 33 250C33 252.209 31.2091 254 29 254H4C1.79086 254 0 252.209 0 250Z" fill="black"/>
<path fill-rule="evenodd" clip-rule="evenodd" d="M0 273C0 270.791 1.79086 269 4 269H29C31.2091 269 33 270.791 33 273C33 275.209 31.2091 277 29 277H4C1.79086 277 0 275.209 0 273Z" fill="black"/>
<path fill-rule="evenodd" clip-rule="evenodd" d="M60 47.5C60 46.1193 61.0781 45 62.408 45H214.592C215.922 45 217 46.1193 217 47.5C217 48.8807 215.922 50 214.592 50H62.408C61.0781 50 60 48.8807 60 47.5Z" fill="black"/>
<path fill-rule="evenodd" clip-rule="evenodd" d="M60 78.5C60 77.1193 61.0781 76 62.408 76H214.592C215.922 76 217 77.1193 217 78.5C217 79.8807 215.922 81 214.592 81H62.408C61.0781 81 60 79.8807 60 78.5Z" fill="black"/>
<path fill-rule="evenodd" clip-rule="evenodd" d="M60 110.5C60 109.119 61.0781 108 62.408 108H214.592C215.922 108 217 109.119 217 110.5C217 111.881 215.922 113 214.592 113H62.408C61.0781 113 60 111.881 60 110.5Z" fill="black"/>
<path fill-rule="evenodd" clip-rule="evenodd" d="M60 141.5C60 140.119 61.0781 139 62.408 139H214.592C215.922 139 217 140.119 217 141.5C217 142.881 215.922 144 214.592 144H62.408C61.0781 144 60 142.881 60 141.5Z" fill="black"/>
<path fill-rule="evenodd" clip-rule="evenodd" d="M60 171.5C60 170.119 61.0793 169 62.4107 169H138.589C139.921 169 141 170.119 141 171.5C141 172.881 139.921 174 138.589 174H62.4107C61.0793 174 60 172.881 60 171.5Z" fill="black"/>
<path fill-rule="evenodd" clip-rule="evenodd" d="M109 279.5C109 278.119 110.079 277 111.411 277H214.589C215.921 277 217 278.119 217 279.5C217 280.881 215.921 282 214.589 282H111.411C110.079 282 109 280.881 109 279.5Z" fill="black"/>
</svg>
